<?xml version="1.0" encoding="UTF-8" standalone="no"?>
<svg
   xmlns:dc="http://purl.org/dc/elements/1.1/"
   xmlns:cc="http://creativecommons.org/ns#"
   xmlns:rdf="http://www.w3.org/1999/02/22-rdf-syntax-ns#"
   xmlns:svg="http://www.w3.org/2000/svg"
   xmlns="http://www.w3.org/2000/svg"
   xmlns:sodipodi="http://sodipodi.sourceforge.net/DTD/sodipodi-0.dtd"
   xmlns:inkscape="http://www.inkscape.org/namespaces/inkscape"
   sodipodi:docname="Sirius-Logo.svg"
   inkscape:version="1.0 (4035a4fb49, 2020-05-01)"
   id="svg8"
   version="1.1"
   viewBox="0 0 65 65"
   height="65mm"
   width="65mm">
  <defs
     id="defs2" />
  <sodipodi:namedview
     inkscape:window-maximized="0"
     inkscape:window-y="18"
     inkscape:window-x="0"
     inkscape:window-height="967"
     inkscape:window-width="1280"
     showgrid="false"
     inkscape:document-rotation="0"
     inkscape:current-layer="layer1"
     inkscape:document-units="mm"
     inkscape:cy="128.72824"
     inkscape:cx="153.96908"
     inkscape:zoom="2.8"
     inkscape:pageshadow="2"
     inkscape:pageopacity="0.0"
     borderopacity="1.0"
     bordercolor="#666666"
     pagecolor="#ffffff"
     id="base" />
  <metadata
     id="metadata5">
    <rdf:RDF>
      <cc:Work
         rdf:about="">
        <dc:format>image/svg+xml</dc:format>
        <dc:type
           rdf:resource="http://purl.org/dc/dcmitype/StillImage" />
        <dc:title></dc:title>
      </cc:Work>
    </rdf:RDF>
  </metadata>
  <g
     id="layer1"
     inkscape:groupmode="layer"
     inkscape:label="Layer 1">
    <path
       id="path38"
       d="m 13.251844,54.815839 c -1.811805,-0.522375 -3.2537694,-1.992523 -3.7180224,-3.790692 -0.174632,-0.676395 -0.174632,-2.008497 0,-2.684892 0.362724,-1.40492 1.3660704,-2.68132 2.6173554,-3.32965 0.895486,-0.46398 1.533349,-0.619571 2.54,-0.619571 1.006651,0 1.644514,0.155591 2.54,0.619571 0.822761,0.426298 1.668868,1.237664 2.032956,1.949483 l 0.253044,0.49472 0.499253,-0.05022 c 0.274589,-0.02762 1.462976,-0.05022 2.640858,-0.05022 h 2.141605 l 3.26779,-2.767068 c 1.970637,-1.668676 3.251199,-2.810308 3.22599,-2.875999 -0.02299,-0.05991 -3.475356,-3.786781 -7.671924,-8.281932 l -7.630124,-8.173002 -6.4493914,-0.0019 C 3.467009,25.252667 3.0721432,25.243567 2.7531767,25.097251 2.0091506,24.755944 1.6138953,24.106164 1.6138953,23.224326 c 0,-0.795329 0.2595228,-1.305549 0.8773118,-1.724792 l 0.3279326,-0.222538 h 5.8622473 5.862246 l 0.11372,-0.274545 c 0.157414,-0.380031 0.637176,-0.891202 1.019509,-1.086253 0.312128,-0.159236 0.661025,-0.163162 14.356775,-0.161537 11.499024,0.0014 14.155785,0.02263 14.694571,0.117594 0.707417,0.124692 1.310953,0.432572 1.91291,0.975829 0.183994,0.166051 3.448603,3.826162 7.254685,8.133579 3.806084,4.307416 7.141523,8.060266 7.412088,8.339666 0.639896,0.660792 0.835235,1.096419 0.835235,1.862667 0,0.684891 -0.191574,1.194915 -0.614905,1.637057 -0.515884,0.538806 -0.373245,0.521943 -4.414839,0.521943 h -3.687204 v 1.947334 1.947333 h 1.771075 c 0.974092,0 1.83275,0.02367 1.908132,0.05259 0.497865,0.19105 0.489371,1.455764 -0.01223,1.820175 -0.0885,0.06429 -1.025973,1.226504 -2.083277,2.582687 l -1.922371,2.465788 v 0.545678 c 0,0.678769 -0.188108,1.331779 -0.485418,1.685112 -0.653295,0.776397 -2.101202,0.776397 -2.754497,0 -0.484087,-0.575268 -0.485414,-0.594673 -0.485414,-7.093026 v -5.953633 l -6.1595,0.0011 -6.159501,0.0011 -6.074176,5.248265 -6.074177,5.248268 H 22.232132 19.56944 l -0.280131,0.529167 c -0.584863,1.1048 -1.933873,2.127921 -3.255686,2.469189 -0.701244,0.181048 -2.112448,0.168762 -2.781779,-0.02422 z m 2.819178,-2.313489 c 0.68385,-0.320385 1.204933,-0.845159 1.543383,-1.554316 0.234983,-0.492365 0.268705,-0.65116 0.268705,-1.265333 0,-0.614173 -0.03372,-0.772968 -0.268705,-1.265333 -0.341295,-0.715118 -0.858111,-1.231933 -1.573228,-1.573228 -0.492366,-0.234984 -0.651161,-0.268706 -1.265333,-0.268706 -0.614173,0 -0.772968,0.03372 -1.265334,0.268706 -0.715117,0.341295 -1.231933,0.85811 -1.573227,1.573228 -0.234984,0.492365 -0.268706,0.65116 -0.268706,1.265333 0,0.614173 0.03372,0.772968 0.268706,1.265333 0.774733,1.623308 2.556488,2.29326 4.133739,1.554316 z M 53.261435,37.039494 c 0.207025,-0.131746 0.425773,-0.29967 0.486106,-0.373163 0.130482,-0.158944 0.26186,-0.909793 0.192856,-1.102208 -0.0267,-0.07446 -0.524803,-0.676374 -1.106886,-1.337581 -0.582083,-0.661206 -1.158541,-1.320745 -1.281016,-1.465641 l -0.222683,-0.263448 -0.850243,0.816083 c -1.826886,1.75349 -4.150498,2.976812 -6.768171,3.563267 -0.718842,0.161048 -1.079304,0.185104 -2.773554,0.185104 -2.144911,0 -2.756929,-0.08826 -4.38222,-0.631953 -5.160723,-1.726372 -8.964905,-6.54214 -9.344834,-11.829753 l -0.05627,-0.783167 h -1.854375 c -2.062533,0 -2.1691,0.02293 -2.574026,0.553814 -0.31037,0.406915 -0.364473,0.984417 -0.139806,1.492311 0.123992,0.280304 1.540482,1.805422 5.476964,5.896982 l 5.309718,5.518893 h 9.756017 9.756017 z M 43.054511,33.505926 c 0.512233,-0.109229 1.236209,-0.306378 1.608833,-0.438109 1.395367,-0.493289 2.938603,-1.511323 3.998192,-2.637509 0.381385,-0.405355 0.428067,-0.490734 0.338667,-0.619409 -0.05703,-0.08209 -1.208592,-1.461956 -2.559025,-3.066376 l -2.455334,-2.917129 -6.709833,-0.0052 -6.709834,-0.0052 v 0.213104 c 0,0.361717 0.402904,2.07901 0.655217,2.792729 0.454356,1.285236 1.42258,2.802941 2.432295,3.812656 1.401968,1.401969 3.19493,2.373177 5.252155,2.844976 1.533926,0.351787 2.587902,0.358247 4.148667,0.02543 z M 55.204178,20.606989 c -0.256117,-0.03077 -0.583621,-0.119147 -0.727787,-0.196382 -0.244132,-0.130792 -1.577295,-1.574671 -1.760036,-1.906203 -0.180946,-0.328277 -1.937371,-2.441419 -2.110357,-2.538956 -0.145499,-0.08204 -3.89127,-0.104853 -17.375148,-0.105833 -15.946295,-0.0012 -17.204804,0.009 -17.399001,0.140711 -0.711813,0.4827 -1.227027,1.099729 -1.396531,1.67251 l -0.101959,0.344531 h -1.937758 c -2.189039,0 -2.4771824,-0.05804 -3.1070474,-0.625803 C 8.3171569,16.515939 8.2940057,14.834738 9.2409756,13.936537 9.7237225,13.478653 10.246726,13.301994 11.262039,13.25387 l 0.899708,-0.04264 0.148476,-0.418045 c 0.176243,-0.496223 0.636407,-1.032315 1.080639,-1.258946 0.313013,-0.159687 0.71916,-0.163201 18.859741,-0.163201 20.274898,0 19.250458,-0.02484 20.128763,0.488133 0.326888,0.190919 0.844212,0.772125 2.50859,2.81836 1.153228,1.417812 2.191081,2.76834 2.30634,3.001173 0.373854,0.75522 0.241408,1.949748 -0.280073,2.52598 -0.328799,0.363318 -0.905472,0.498988 -1.710045,0.402309 z"
       style="fill:#000000;stroke-width:0.0846667" />
  </g>
</svg>
